<svg width="18" height="16" viewBox="0 0 18 16" fill="none" xmlns="http://www.w3.org/2000/svg">
<g id="&#240;&#159;&#166;&#134; icon &#34;arrow right&#34;">
<g id="Vector">
<path d="M8.26466 15.0085C8.06356 15.2096 7.79084 15.3225 7.50649 15.3225C7.22213 15.3225 6.94941 15.2096 6.74831 15.0085L0.313996 8.57421C0.112954 8.37311 1.58902e-05 8.1004 1.5915e-05 7.81604C1.59399e-05 7.53168 0.112954 7.25896 0.313996 7.05786L6.74831 0.623545C6.95057 0.428202 7.22145 0.320111 7.50263 0.322555C7.7838 0.324998 8.05277 0.437781 8.2516 0.636609C8.45043 0.835438 8.56321 1.10441 8.56566 1.38558C8.5681 1.66676 8.46001 1.93765 8.26466 2.1399L3.66091 6.74365L16.0856 6.74365C16.37 6.74365 16.6428 6.85664 16.8439 7.05775C17.045 7.25886 17.158 7.53162 17.158 7.81604C17.158 8.10045 17.045 8.37322 16.8439 8.57433C16.6428 8.77544 16.37 8.88842 16.0856 8.88842L3.66091 8.88842L8.26466 13.4922C8.46571 13.6933 8.57864 13.966 8.57864 14.2504C8.57864 14.5347 8.4657 14.8074 8.26466 15.0085Z" fill="#424B5A"/>
<path d="M8.26466 15.0085C8.06356 15.2096 7.79084 15.3225 7.50649 15.3225C7.22213 15.3225 6.94941 15.2096 6.74831 15.0085L0.313996 8.57421C0.112954 8.37311 1.58902e-05 8.1004 1.5915e-05 7.81604C1.59399e-05 7.53168 0.112954 7.25896 0.313996 7.05786L6.74831 0.623545C6.95057 0.428202 7.22145 0.320111 7.50263 0.322555C7.7838 0.324998 8.05277 0.437781 8.2516 0.636609C8.45043 0.835438 8.56321 1.10441 8.56566 1.38558C8.5681 1.66676 8.46001 1.93765 8.26466 2.1399L3.66091 6.74365L16.0856 6.74365C16.37 6.74365 16.6428 6.85664 16.8439 7.05775C17.045 7.25886 17.158 7.53162 17.158 7.81604C17.158 8.10045 17.045 8.37322 16.8439 8.57433C16.6428 8.77544 16.37 8.88842 16.0856 8.88842L3.66091 8.88842L8.26466 13.4922C8.46571 13.6933 8.57864 13.966 8.57864 14.2504C8.57864 14.5347 8.4657 14.8074 8.26466 15.0085Z" fill="#424B5A"/>
</g>
</g>
</svg>
