<svg width="18" height="16" viewBox="0 0 18 16" fill="none" xmlns="http://www.w3.org/2000/svg">
<g id="&#240;&#159;&#166;&#134; icon &#34;arrow right&#34;">
<g id="Vector">
<path d="M9.41527 0.63649C9.61637 0.435449 9.88909 0.32251 10.1734 0.32251C10.4578 0.32251 10.7305 0.435449 10.9316 0.63649L17.3659 7.0708C17.567 7.27191 17.6799 7.54462 17.6799 7.82898C17.6799 8.11334 17.567 8.38606 17.3659 8.58716L10.9316 15.0215C10.7294 15.2168 10.4585 15.3249 10.1773 15.3225C9.89613 15.32 9.62716 15.2072 9.42833 15.0084C9.2295 14.8096 9.11672 14.5406 9.11428 14.2594C9.11183 13.9783 9.21992 13.7074 9.41527 13.5051L14.019 8.90137H1.59436C1.30994 8.90137 1.03718 8.78838 0.836067 8.58727C0.634956 8.38616 0.521973 8.1134 0.521973 7.82898C0.521973 7.54457 0.634956 7.2718 0.836067 7.07069C1.03718 6.86958 1.30994 6.7566 1.59436 6.7566H14.019L9.41527 2.15284C9.21423 1.95174 9.10129 1.67902 9.10129 1.39467C9.10129 1.11031 9.21423 0.837592 9.41527 0.63649Z" fill="#424B5A"/>
<path d="M9.41527 0.63649C9.61637 0.435449 9.88909 0.32251 10.1734 0.32251C10.4578 0.32251 10.7305 0.435449 10.9316 0.63649L17.3659 7.0708C17.567 7.27191 17.6799 7.54462 17.6799 7.82898C17.6799 8.11334 17.567 8.38606 17.3659 8.58716L10.9316 15.0215C10.7294 15.2168 10.4585 15.3249 10.1773 15.3225C9.89613 15.32 9.62716 15.2072 9.42833 15.0084C9.2295 14.8096 9.11672 14.5406 9.11428 14.2594C9.11183 13.9783 9.21992 13.7074 9.41527 13.5051L14.019 8.90137H1.59436C1.30994 8.90137 1.03718 8.78838 0.836067 8.58727C0.634956 8.38616 0.521973 8.1134 0.521973 7.82898C0.521973 7.54457 0.634956 7.2718 0.836067 7.07069C1.03718 6.86958 1.30994 6.7566 1.59436 6.7566H14.019L9.41527 2.15284C9.21423 1.95174 9.10129 1.67902 9.10129 1.39467C9.10129 1.11031 9.21423 0.837592 9.41527 0.63649Z" fill="#424B5A"/>
</g>
</g>
</svg>
